<svg xmlns="http://www.w3.org/2000/svg" version="1.1" xlink="http://www.w3.org/1999/xlink" xmlns:svgjs="http://svgjs.com/svgjs" width="88.36931563260592" height="147"><defs id="SvgjsDefs476130"><linearGradient id="SvgjsLinearGradientH_h7kC5C7" gradientUnits="userSpaceOnUse" x1="16.13921443000709" y1="83.86326440985663" x2="83.8607434648561" y2="16.141735375007606"><stop id="SvgjsStop476133" stop-color="#3994df" offset="0.05"/><stop id="SvgjsStop476134" stop-color="#155284" offset="0.95"/></linearGradient></defs><g id="SvgjsG476131" transform="scale(0.515970515970516)" opacity="1"><g id="SvgjsG476135" class="wDxfO8e66" transform="translate(-82.76435179806334, -25.956917175720555) scale(3.3679699522625075)" light-content="false" non-strokable="false" fill="url(#SvgjsLinearGradientH_h7kC5C7)"><path d="M45.949 92.297h7.52a3.134 3.134 0 0 0 3.124-3.125v-7.227l1.563-.418c12.746-3.207 17.27-11.977 17.27-18.496 0-12.082-10.414-17.102-20.621-20.434-9.582-3.164-12.645-5.082-12.645-7.914 0-2.539 2.938-5.082 9.52-5.082 7.25 0 11.789 2.063 13.727 2.957.417.188.855.293 1.289.293a3.155 3.155 0 0 0 2.832-1.793l2.98-6.312c.356-.73.395-1.606.106-2.375a3.039 3.039 0 0 0-1.606-1.77c-3.582-1.687-7.477-2.77-11.875-3.289l-1.832-.23v-6.27a3.118 3.118 0 0 0-3.125-3.105h-7.394c-1.707 0-3.125 1.394-3.125 3.105v6.977l-1.563.394C31.805 20.79 25.656 27.39 25.656 35.828c0 11.125 11.02 16.082 21.832 19.477 9.977 3.25 11.332 6.063 11.332 8.395 0 3.605-4.664 6.226-11.082 6.226-5.457 0-11.332-1.394-15.707-3.73a3.054 3.054 0 0 0-1.48-.375c-.332 0-.668.062-1 .168a3.168 3.168 0 0 0-1.832 1.687l-2.875 6.395c-.645 1.48-.106 3.187 1.312 3.98 3.645 2.106 9.063 3.665 14.812 4.313l1.856.187v6.625a3.118 3.118 0 0 0 3.125 3.122z"/></g></g></svg>